<svg xmlns="http://www.w3.org/2000/svg" data-name="Слой 1" viewBox="0 0 32 32" id="coding"><path d="M28.707,21.352V8.388a2.542,2.542,0,0,0-2.539-2.539H5.9A2.542,2.542,0,0,0,3.365,8.388V21.352H1.37v.539a4.265,4.265,0,0,0,4.26,4.26H26.37a4.265,4.265,0,0,0,4.26-4.26v-.539ZM4.443,8.388a1.409,1.409,0,0,1,.024-.236H27.605a1.522,1.522,0,0,1,.024.236V21.352H4.443ZM26.37,25.073H5.63A3.188,3.188,0,0,1,2.494,22.43H13.865a2.229,2.229,0,0,0,4.457,0H29.507A3.19,3.19,0,0,1,26.37,25.073Z"></path><polygon points="12.67 11.815 11.907 11.052 8.265 14.694 11.972 18.401 12.734 17.638 9.79 14.694 12.67 11.815"></polygon><polygon points="19.331 11.815 22.21 14.694 19.265 17.638 20.028 18.401 23.735 14.694 20.094 11.052 19.331 11.815"></polygon><rect width="11.146" height="1.078" x="10.427" y="13.894" transform="rotate(-76.222 16 14.433)"></rect></svg>